<svg id="Livello_1" data-name="Livello 1" xmlns="http://www.w3.org/2000/svg" viewBox="0 0 98.47 100.34"><defs><style>.cls-1{fill:#aa1259;}.cls-2{fill:#fff;}.cls-3{fill:#f6a01b;}</style></defs><circle class="cls-1" cx="48.52" cy="11.41" r="8.22"/><circle class="cls-1" cx="48.52" cy="87.63" r="8.22"/><circle class="cls-1" cx="35.49" cy="13.7" r="8.22"/><circle class="cls-1" cx="61.56" cy="85.33" r="8.22"/><circle class="cls-1" cx="24.03" cy="20.32" r="8.22"/><circle class="cls-1" cx="73.02" cy="78.71" r="8.22"/><circle class="cls-1" cx="15.52" cy="30.46" r="8.22"/><circle class="cls-1" cx="81.53" cy="68.57" r="8.22"/><circle class="cls-1" cx="10.99" cy="42.9" r="8.22"/><circle class="cls-1" cx="86.06" cy="56.14" r="8.22"/><circle class="cls-1" cx="10.99" cy="56.14" r="8.22"/><circle class="cls-1" cx="86.06" cy="42.9" r="8.22"/><circle class="cls-1" cx="15.52" cy="68.57" r="8.22"/><circle class="cls-1" cx="81.53" cy="30.46" r="8.22"/><circle class="cls-1" cx="24.03" cy="78.71" r="8.22"/><circle class="cls-1" cx="73.02" cy="20.32" r="8.22"/><circle class="cls-1" cx="35.49" cy="85.33" r="8.22"/><circle class="cls-1" cx="61.56" cy="13.7" r="8.22"/><circle class="cls-2" cx="48.52" cy="49.52" r="40.34"/><circle class="cls-3" cx="48.52" cy="49.52" r="38.12"/><path class="cls-2" d="M38.7,31.58a6.51,6.51,0,0,1,.12,2,7.6,7.6,0,0,1-.52,2,6.77,6.77,0,0,1-1,1.79,4.1,4.1,0,0,1-1.36,1.15,3.19,3.19,0,0,1-1.43.36,3.27,3.27,0,0,1-.54,0,1.74,1.74,0,0,1-1-.55,2.67,2.67,0,0,1-.55-1A4.41,4.41,0,0,1,32.21,36a3,3,0,0,1,.23-1.13,2.82,2.82,0,0,1,.82-1.11,1.26,1.26,0,0,1,.81-.2,1,1,0,0,1,.62.26.52.52,0,0,1,.15.46,2.24,2.24,0,0,1-.2.54,1.26,1.26,0,0,0-.16.68.52.52,0,0,0,.86.3,2.31,2.31,0,0,0,.61-.93,4.23,4.23,0,0,0,.31-1.43,1.77,1.77,0,0,0-.34-1.25,1.06,1.06,0,0,0-1.09-.33,3.39,3.39,0,0,0-1.68,1.26,7.69,7.69,0,0,0-1.41,2.33,9.39,9.39,0,0,0-.54,2.22,14.43,14.43,0,0,0-.12,1.56,10.52,10.52,0,0,0,.17,1.85,6.57,6.57,0,0,0,.87,2.33,1.81,1.81,0,0,0,1.51.84A1.61,1.61,0,0,0,35,43.76a1.54,1.54,0,0,0,.43-1,.84.84,0,0,0-.25-.72.53.53,0,0,0-.6-.12,1.69,1.69,0,0,0-.59.42,2.34,2.34,0,0,0-.4.56,1.14,1.14,0,0,1-.72-.37,1.2,1.2,0,0,1-.29-.74,1.69,1.69,0,0,1,.86-1.65,2.8,2.8,0,0,1,1.23-.34,4.52,4.52,0,0,1,1.17.07,3.06,3.06,0,0,1,1.23.72,2.37,2.37,0,0,1,.73,1.62,3.78,3.78,0,0,1-.17,1.72,5.39,5.39,0,0,1-1.12,1.67,4.09,4.09,0,0,1-2.34,1.17,7.55,7.55,0,0,1-2.88-.18A5.65,5.65,0,0,1,29,44.89a6.87,6.87,0,0,1-1.2-2.44,11.45,11.45,0,0,1-.34-2.84,17.72,17.72,0,0,1,.25-2.87A11.2,11.2,0,0,1,29,33.09a8.79,8.79,0,0,1,2-2.46A6.35,6.35,0,0,1,35.09,29a4.87,4.87,0,0,1,.66,0,3.76,3.76,0,0,1,1.92.83A2.92,2.92,0,0,1,38.7,31.58Z"/><path class="cls-2" d="M38.89,40.84A3.11,3.11,0,0,1,40,39.67a4.53,4.53,0,0,1,1.28-.53A5.07,5.07,0,0,1,42.33,39a4.58,4.58,0,0,1,.53,0,6.44,6.44,0,0,1,1.31.36,11,11,0,0,1,1.07.5l-.09-2.13a5.14,5.14,0,0,0-.26-1.39,1.43,1.43,0,0,0-1.19-1,2.63,2.63,0,0,0-1.08.09.44.44,0,0,0-.33.43c0,.21.18.3.54.26a2.07,2.07,0,0,1,.83.06c.2.08.32.36.36.86a1.44,1.44,0,0,1-.52,1.26,1.67,1.67,0,0,1-.81.39,3.8,3.8,0,0,1-.53.06,2.15,2.15,0,0,1-.88-.19,2.06,2.06,0,0,1-1-.84,2.79,2.79,0,0,1-.41-1.51,3.18,3.18,0,0,1,.41-1.5,4.15,4.15,0,0,1,1.44-1.37,4,4,0,0,1,2.42-.59,4.75,4.75,0,0,1,2.64,1A4.62,4.62,0,0,1,48,35.58a8.61,8.61,0,0,1,.55,2.15,18,18,0,0,1,.11,2.39c0,.87-.07,1.73-.15,2.6s-.15,1.53-.21,2a2.56,2.56,0,0,1-.5,1.17,2,2,0,0,1-1,.68,1.54,1.54,0,0,1-.86,0,1,1,0,0,1-.54-.39,7.43,7.43,0,0,1-.49-.9,7.39,7.39,0,0,1-1.48.94,4.58,4.58,0,0,1-1.67.5H41.6a3,3,0,0,1-2.48-1.29,3.76,3.76,0,0,1-.67-2.47A4.24,4.24,0,0,1,38.89,40.84Zm4.67,2.91a6.24,6.24,0,0,0,.89-.89,1.57,1.57,0,0,0-.49-1,1.72,1.72,0,0,0-1.18-.47,1,1,0,0,0-.65.29,1.42,1.42,0,0,0-.39.62,2.6,2.6,0,0,0,0,1.08.76.76,0,0,0,.73.77A1.5,1.5,0,0,0,43.56,43.75Z"/><path class="cls-2" d="M51.8,31.19a1.36,1.36,0,0,1,1,.63,2.17,2.17,0,0,1,.26.92q0,.45,0,.75C53,34.83,53,35.71,53,36.15s0,.71,0,.8A2.32,2.32,0,0,0,54,36.62a4.93,4.93,0,0,0,1.22-1.08,1.75,1.75,0,0,0,.56-1.38A2.81,2.81,0,0,0,55.36,33c-.22-.52,0-1,.68-1.57a1.79,1.79,0,0,1,2.14-.14A2.23,2.23,0,0,1,59.44,33a4.1,4.1,0,0,1-.07,1.6,5.83,5.83,0,0,1-.76,1.57,5.5,5.5,0,0,1-1.31,1.33,8.65,8.65,0,0,1-1.45.85,2.49,2.49,0,0,1,1.3.92,4,4,0,0,1,.65,1.48A8.46,8.46,0,0,1,58,42.33q0,.72,0,1.26a6.11,6.11,0,0,0,.18,1.95,1.77,1.77,0,0,0,.37.51,2.47,2.47,0,0,1,.22.29,1,1,0,0,1,.07.5,1,1,0,0,1-.36.67,2.06,2.06,0,0,1-.82.45,2.87,2.87,0,0,1-1.07,0,1.84,1.84,0,0,1-1.06-.52,2.63,2.63,0,0,1-.68-1.31,4.4,4.4,0,0,1-.09-1.09c0-.43,0-.87.08-1.32s.08-.94.08-1.26a2.89,2.89,0,0,0-.19-1,2.81,2.81,0,0,0-.31-.59,1.43,1.43,0,0,0-.5-.48,2,2,0,0,0-1-.11c.08,1.56.15,2.58.2,3.07s.08.86.08,1.14,0,.51,0,.73a1.55,1.55,0,0,1-.43,1,2.19,2.19,0,0,1-.73.37,2.65,2.65,0,0,1-.92.06,1.55,1.55,0,0,1-.88-.31,1.42,1.42,0,0,1-.47-.82,29.32,29.32,0,0,1-.22-4.69q0-3.43.06-5c0-1,.08-1.75.13-2.23a7.35,7.35,0,0,1,.31-1.39,2.17,2.17,0,0,1,.58-1A1.33,1.33,0,0,1,51.8,31.19Z"/><path class="cls-2" d="M60.08,36.64a7.14,7.14,0,0,1,1.41-2,6.87,6.87,0,0,1,1.87-1.36,4.34,4.34,0,0,1,1.54-.5l.54,0a3.32,3.32,0,0,1,1.87.57,3.61,3.61,0,0,1,1.34,1.5,4.37,4.37,0,0,1,.28,2.45,3.27,3.27,0,0,1-1.15,2.28,4.42,4.42,0,0,1-2.14,1,14,14,0,0,1-1.82.21,4,4,0,0,1-1.14-.1,6.34,6.34,0,0,0,.25,1.3,3.56,3.56,0,0,0,.67,1.35,1.37,1.37,0,0,0,1.07.52,1,1,0,0,0,.87-.37,1.65,1.65,0,0,0,.24-.91,4.38,4.38,0,0,0-.07-.84.55.55,0,0,1,.24-.55,1.37,1.37,0,0,1,.93-.21,1.78,1.78,0,0,1,1.61,1.46c0,.32.05.52.05.61a3.37,3.37,0,0,1-.33,1.41A4.08,4.08,0,0,1,66.58,46a4.55,4.55,0,0,1-2.14.76A4.86,4.86,0,0,1,61.77,46a4.56,4.56,0,0,1-1.63-1.85,6.56,6.56,0,0,1-.7-2.15,14.31,14.31,0,0,1-.12-1.62,9.55,9.55,0,0,1,.1-1.41A8.53,8.53,0,0,1,60.08,36.64ZM63,38.39a5.1,5.1,0,0,0,1.35.17,1.86,1.86,0,0,0,1.16-.39,1.77,1.77,0,0,0,.6-1.2,1.27,1.27,0,0,0-.3-1.22.91.91,0,0,0-1-.19,2.42,2.42,0,0,0-1.07,1A5,5,0,0,0,63,38.39Z"/><path class="cls-2" d="M33.16,52a6.53,6.53,0,0,1,.12,2,8.06,8.06,0,0,1-.51,2,7.3,7.3,0,0,1-1,1.78,4.14,4.14,0,0,1-1.37,1.16,3.19,3.19,0,0,1-1.43.36,4.9,4.9,0,0,1-.54,0,1.7,1.7,0,0,1-1-.56,2.56,2.56,0,0,1-.55-1,4.51,4.51,0,0,1-.16-1.23,2.77,2.77,0,0,1,.24-1.13,2.81,2.81,0,0,1,.81-1.11,1.2,1.2,0,0,1,.81-.2,1,1,0,0,1,.62.26.51.51,0,0,1,.15.46,2.52,2.52,0,0,1-.19.54,1.1,1.1,0,0,0-.16.68.46.46,0,0,0,.32.39.48.48,0,0,0,.53-.09,2.43,2.43,0,0,0,.62-.93,4.54,4.54,0,0,0,.3-1.43,1.74,1.74,0,0,0-.34-1.26,1.06,1.06,0,0,0-1.09-.33,3.43,3.43,0,0,0-1.68,1.27,7.85,7.85,0,0,0-1.41,2.33A9.39,9.39,0,0,0,25.66,58a13.75,13.75,0,0,0-.11,1.56,10.32,10.32,0,0,0,.16,1.84,6.54,6.54,0,0,0,.88,2.34,1.79,1.79,0,0,0,1.5.83,1.61,1.61,0,0,0,1.38-.47,1.58,1.58,0,0,0,.42-1,.83.83,0,0,0-.25-.71.55.55,0,0,0-.6-.13,1.78,1.78,0,0,0-.59.42,2.07,2.07,0,0,0-.39.57,1.22,1.22,0,0,1-.73-.37,1.26,1.26,0,0,1-.29-.75,2,2,0,0,1,.1-.76,1.77,1.77,0,0,1,.76-.88,2.68,2.68,0,0,1,1.23-.34,4.11,4.11,0,0,1,1.17.07,3,3,0,0,1,1.23.71,2.39,2.39,0,0,1,.73,1.62,3.82,3.82,0,0,1-.17,1.73A5.51,5.51,0,0,1,31,66a4.14,4.14,0,0,1-2.33,1.16A7.72,7.72,0,0,1,25.76,67a5.52,5.52,0,0,1-2.31-1.71,6.6,6.6,0,0,1-1.2-2.45A10.89,10.89,0,0,1,21.9,60a17.59,17.59,0,0,1,.25-2.86,11.2,11.2,0,0,1,1.27-3.65,8.51,8.51,0,0,1,2-2.46,6.77,6.77,0,0,1,2.21-1.27,6.48,6.48,0,0,1,1.89-.33,4.89,4.89,0,0,1,.66.05,3.71,3.71,0,0,1,1.92.82A3,3,0,0,1,33.16,52Z"/><path class="cls-2" d="M43.53,57.44a6.44,6.44,0,0,1,.52,2.33,20.38,20.38,0,0,1-.13,2.58c-.1,1-.18,2-.24,3a2.21,2.21,0,0,1-1,2,1.4,1.4,0,0,1-1.56,0A1.87,1.87,0,0,1,40.36,66a15.34,15.34,0,0,1-.09-2.11c0-.78,0-1.5.08-2.16a11.14,11.14,0,0,0,0-1.5,1.19,1.19,0,0,0-.41-.92,1.16,1.16,0,0,0-1.24.29A3.22,3.22,0,0,0,38,60.73c0,.09,0,.91.08,2.45s-.12,2.51-.54,2.91a2.12,2.12,0,0,1-1.36.65A1.4,1.4,0,0,1,34.88,66a4,4,0,0,1-.57-2.1c0-.86-.1-1.89-.2-3.08a24.07,24.07,0,0,1,0-3.7c.1-1.28.17-2.37.21-3.28A2.69,2.69,0,0,1,35,51.94a2.18,2.18,0,0,1,1.34-.58,1.44,1.44,0,0,1,1.23.41A2.4,2.4,0,0,1,38,53.39c0,.76,0,2-.06,3.86a3.53,3.53,0,0,1,1.19-.89A4.48,4.48,0,0,1,40.82,56a3.48,3.48,0,0,1,1.63.27A2.23,2.23,0,0,1,43.53,57.44Z"/><path class="cls-2" d="M45.71,57a7.32,7.32,0,0,1,1.4-2A6.71,6.71,0,0,1,49,53.65a4.11,4.11,0,0,1,1.53-.5l.55,0a3.39,3.39,0,0,1,1.87.56,3.64,3.64,0,0,1,1.34,1.51,4.35,4.35,0,0,1,.28,2.44,3.27,3.27,0,0,1-1.15,2.28,4.53,4.53,0,0,1-2.14,1,16.34,16.34,0,0,1-1.82.21,4.44,4.44,0,0,1-1.14-.1,6.39,6.39,0,0,0,.25,1.29,3.61,3.61,0,0,0,.67,1.36,1.4,1.4,0,0,0,1.07.52,1,1,0,0,0,.87-.37,1.67,1.67,0,0,0,.24-.91,4.58,4.58,0,0,0-.07-.85.54.54,0,0,1,.24-.54,1.35,1.35,0,0,1,.92-.22,1.83,1.83,0,0,1,1.62,1.47c0,.31.05.52.05.6a3.38,3.38,0,0,1-.33,1.42,4.08,4.08,0,0,1-1.63,1.59,4.41,4.41,0,0,1-2.14.75,4.78,4.78,0,0,1-2.67-.72,4.66,4.66,0,0,1-1.63-1.86,6.48,6.48,0,0,1-.7-2.15A14,14,0,0,1,45,60.77a9.78,9.78,0,0,1,.1-1.42A8.13,8.13,0,0,1,45.71,57Zm2.89,1.75a4.71,4.71,0,0,0,1.35.16,1.8,1.8,0,0,0,1.16-.38,1.86,1.86,0,0,0,.6-1.2,1.27,1.27,0,0,0-.31-1.23.9.9,0,0,0-1-.18,2.36,2.36,0,0,0-1.07,1A5,5,0,0,0,48.6,58.77Z"/><path class="cls-2" d="M60.46,53.61a4.13,4.13,0,0,1,2.6.53A3.65,3.65,0,0,1,64.53,56a3.88,3.88,0,0,1,.11,1.48,4.53,4.53,0,0,1-.53,1.78,2.66,2.66,0,0,1-1.23,1.19,3.54,3.54,0,0,1-1.59.29,2.3,2.3,0,0,1-1.29-.4,1.73,1.73,0,0,1-.62-.75,2,2,0,0,1-.14-.62,1.31,1.31,0,0,1,.09-.47,1.27,1.27,0,0,1,.75-.72,1.63,1.63,0,0,1,1.1-.1,1.4,1.4,0,0,0,.82.05c.2-.06.29-.23.27-.5a1,1,0,0,0-.39-.69,1.1,1.1,0,0,0-1-.12,2.87,2.87,0,0,0-1.36.94,4,4,0,0,0-.91,1.54,5.38,5.38,0,0,0-.21,1.43,4.9,4.9,0,0,0,.06.77A5.32,5.32,0,0,0,59,62.89a3.1,3.1,0,0,0,.81,1,1.09,1.09,0,0,0,.9.19c.32-.07.47-.38.46-.94a6.05,6.05,0,0,1,0-1.11.62.62,0,0,1,.36-.43,1.47,1.47,0,0,1,.76-.18,1.2,1.2,0,0,1,1,.55,1.84,1.84,0,0,1,.34.91c0,.27,0,.42,0,.47a4.53,4.53,0,0,1-.2,1.31,2.92,2.92,0,0,1-.62,1.16A3.79,3.79,0,0,1,60.52,67a4.61,4.61,0,0,1-2.15-.1,3.93,3.93,0,0,1-1.91-1.53,7.41,7.41,0,0,1-1.1-2.56,10.74,10.74,0,0,1-.29-2.24,7.66,7.66,0,0,1,.08-1.09A8.75,8.75,0,0,1,56,56.75a6.09,6.09,0,0,1,1.75-2.15A4.89,4.89,0,0,1,60.46,53.61Z"/><path class="cls-2" d="M67.46,51.57a1.35,1.35,0,0,1,1,.62,2.42,2.42,0,0,1,.26.93c0,.3,0,.55,0,.75-.09,1.33-.14,2.22-.15,2.66s0,.7,0,.8A2.34,2.34,0,0,0,69.67,57a4.93,4.93,0,0,0,1.22-1.08,1.74,1.74,0,0,0,.57-1.38A3.09,3.09,0,0,0,71,53.39c-.22-.51,0-1,.67-1.56a1.79,1.79,0,0,1,2.15-.14,2.24,2.24,0,0,1,1.25,1.7A4,4,0,0,1,75,55a6,6,0,0,1-.76,1.57A5.17,5.17,0,0,1,73,57.89a7.46,7.46,0,0,1-1.45.85,2.59,2.59,0,0,1,1.31.93,4.05,4.05,0,0,1,.65,1.48,8.4,8.4,0,0,1,.21,1.56c0,.48,0,.9,0,1.25a6,6,0,0,0,.19,2,1.6,1.6,0,0,0,.37.51,2,2,0,0,1,.22.29,1,1,0,0,1,.07.5,1,1,0,0,1-.37.67,1.89,1.89,0,0,1-.81.44,2.56,2.56,0,0,1-1.08,0,1.81,1.81,0,0,1-1.06-.52,2.71,2.71,0,0,1-.68-1.3,5.7,5.7,0,0,1-.09-1.09c0-.43,0-.87.08-1.32s.08-.94.08-1.26a2.72,2.72,0,0,0-.19-1,3.66,3.66,0,0,0-.3-.59,1.34,1.34,0,0,0-.51-.47,1.92,1.92,0,0,0-1-.12c.08,1.56.15,2.59.2,3.07s.07.87.07,1.14,0,.52,0,.73a1.47,1.47,0,0,1-.43,1,2.06,2.06,0,0,1-.72.37,2.65,2.65,0,0,1-.92.07,1.59,1.59,0,0,1-.89-.32,1.42,1.42,0,0,1-.47-.81,31.17,31.17,0,0,1-.21-4.7c0-2.28,0-3.93.06-4.94s.07-1.76.13-2.23a6.5,6.5,0,0,1,.3-1.39,2.2,2.2,0,0,1,.58-1A1.3,1.3,0,0,1,67.46,51.57Z"/></svg>